<svg id="art" xmlns="http://www.w3.org/2000/svg" viewBox="0 0 750 750">
    <defs>
        <style>
            .cls-1{fill:#fff;}.cls-2{fill:#008c99;fill-rule:evenodd;}
        </style>
    </defs>
    <ellipse class="cls-1" cx="380.98" cy="370.46" rx="72.82" ry="72.88"/>
    <path class="cls-2" d="M409.58,493.34a126.19,126.19,0,0,0,0-245.76V160.74A8.43,8.43,0,0,1,424.16,155L607,349.79a31.45,31.45,0,0,1,0,43L424.16,587.66a8.43,8.43,0,0,1-14.58-5.77Z"/>
    <path class="cls-2" d="M352.57,493.34a126.19,126.19,0,0,1,0-245.76V160.74A8.43,8.43,0,0,0,338,155L155.15,349.79a31.45,31.45,0,0,0,0,43L338,587.66a8.43,8.43,0,0,0,14.58-5.77Z"/>
</svg>